<mxfile host="app.diagrams.net" modified="2021-04-19T02:56:46.680Z" agent="5.0 (Windows NT 10.0; Win64; x64) AppleWebKit/537.36 (KHTML, like Gecko) Chrome/89.0.4389.128 Safari/537.36 Edg/89.0.774.77" etag="SHrv2GqYs1FMKP1Boxg0" version="14.6.1" type="github">
  <diagram id="prtHgNgQTEPvFCAcTncT" name="Page-1">
    <mxGraphModel dx="990" dy="500" grid="1" gridSize="10" guides="1" tooltips="1" connect="1" arrows="1" fold="1" page="1" pageScale="1" pageWidth="827" pageHeight="1169" math="0" shadow="0">
      <root>
        <mxCell id="0" />
        <mxCell id="1" parent="0" />
        <mxCell id="dNxyNK7c78bLwvsdeMH5-19" value="&lt;div style=&quot;font-family: &amp;#34;consolas&amp;#34; , &amp;#34;courier new&amp;#34; , monospace ; font-weight: normal ; line-height: 27px&quot;&gt;&lt;span style=&quot;font-weight: bold&quot;&gt;&lt;font style=&quot;font-size: 16px&quot;&gt;Order&amp;nbsp;Fullfillment&amp;nbsp;and&amp;nbsp;Customer&amp;nbsp;Service&lt;/font&gt;&lt;/span&gt;&lt;/div&gt;" style="swimlane;html=1;childLayout=stackLayout;resizeParent=1;resizeParentMax=0;horizontal=0;startSize=20;horizontalStack=0;shadow=1;sketch=1;swimlaneFillColor=#B9E0A5;rounded=0;glass=0;" parent="1" vertex="1">
          <mxGeometry x="80" y="122" width="700" height="600" as="geometry">
            <mxRectangle x="120" y="120" width="40" height="370" as="alternateBounds" />
          </mxGeometry>
        </mxCell>
        <mxCell id="589XAvg-LLkNVb0MRYLu-1" value="RMO Information Web Site" style="swimlane;html=1;startSize=20;horizontal=0;shadow=1;sketch=1;" vertex="1" parent="dNxyNK7c78bLwvsdeMH5-19">
          <mxGeometry x="20" width="680" height="210" as="geometry">
            <mxRectangle x="20" width="670" height="20" as="alternateBounds" />
          </mxGeometry>
        </mxCell>
        <mxCell id="589XAvg-LLkNVb0MRYLu-2" style="edgeStyle=orthogonalEdgeStyle;sketch=1;orthogonalLoop=1;jettySize=auto;html=1;entryX=0;entryY=0.5;entryDx=0;entryDy=0;shadow=1;strokeWidth=3;rounded=0;" edge="1" parent="589XAvg-LLkNVb0MRYLu-1" source="589XAvg-LLkNVb0MRYLu-11" target="589XAvg-LLkNVb0MRYLu-5">
          <mxGeometry relative="1" as="geometry" />
        </mxCell>
        <mxCell id="589XAvg-LLkNVb0MRYLu-4" value="" style="group;fillColor=#99CCFF;" vertex="1" connectable="0" parent="589XAvg-LLkNVb0MRYLu-1">
          <mxGeometry x="170" y="27" width="100" height="67" as="geometry" />
        </mxCell>
        <mxCell id="589XAvg-LLkNVb0MRYLu-5" value="&lt;b&gt;&lt;br&gt;Enter order information&lt;/b&gt;" style="rounded=0;whiteSpace=wrap;html=1;shadow=1;glass=0;sketch=1;fillColor=#99CCFF;" vertex="1" parent="589XAvg-LLkNVb0MRYLu-4">
          <mxGeometry width="100" height="67" as="geometry" />
        </mxCell>
        <mxCell id="589XAvg-LLkNVb0MRYLu-6" value="" style="shape=mxgraph.bpmn.manual_task;html=1;outlineConnect=0;rounded=0;shadow=1;glass=0;sketch=1;" vertex="1" parent="589XAvg-LLkNVb0MRYLu-4">
          <mxGeometry x="7" y="8" width="14" height="14" as="geometry" />
        </mxCell>
        <mxCell id="589XAvg-LLkNVb0MRYLu-10" value="" style="group" vertex="1" connectable="0" parent="589XAvg-LLkNVb0MRYLu-1">
          <mxGeometry x="25" y="40" width="70" height="70" as="geometry" />
        </mxCell>
        <mxCell id="589XAvg-LLkNVb0MRYLu-11" value="" style="ellipse;whiteSpace=wrap;html=1;shadow=1;sketch=1;" vertex="1" parent="589XAvg-LLkNVb0MRYLu-10">
          <mxGeometry x="15" width="40" height="40" as="geometry" />
        </mxCell>
        <mxCell id="589XAvg-LLkNVb0MRYLu-12" value="&lt;b&gt;Visit Web Site&lt;/b&gt;" style="text;html=1;strokeColor=none;fillColor=none;align=center;verticalAlign=middle;whiteSpace=wrap;rounded=0;shadow=1;glass=0;" vertex="1" parent="589XAvg-LLkNVb0MRYLu-10">
          <mxGeometry y="50" width="70" height="20" as="geometry" />
        </mxCell>
        <mxCell id="589XAvg-LLkNVb0MRYLu-106" value="" style="group;fillColor=#99CCFF;" vertex="1" connectable="0" parent="589XAvg-LLkNVb0MRYLu-1">
          <mxGeometry x="340" y="27" width="100" height="67" as="geometry" />
        </mxCell>
        <mxCell id="589XAvg-LLkNVb0MRYLu-107" value="&lt;b&gt;&lt;br&gt;Get process information&lt;/b&gt;" style="rounded=0;whiteSpace=wrap;html=1;shadow=1;glass=0;sketch=1;fillColor=#99CCFF;" vertex="1" parent="589XAvg-LLkNVb0MRYLu-106">
          <mxGeometry width="100" height="67" as="geometry" />
        </mxCell>
        <mxCell id="589XAvg-LLkNVb0MRYLu-108" value="" style="shape=mxgraph.bpmn.manual_task;html=1;outlineConnect=0;rounded=0;shadow=1;glass=0;sketch=1;" vertex="1" parent="589XAvg-LLkNVb0MRYLu-106">
          <mxGeometry x="7" y="8" width="14" height="14" as="geometry" />
        </mxCell>
        <mxCell id="589XAvg-LLkNVb0MRYLu-109" style="edgeStyle=orthogonalEdgeStyle;rounded=0;orthogonalLoop=1;jettySize=auto;html=1;entryX=0;entryY=0.5;entryDx=0;entryDy=0;strokeWidth=3;" edge="1" parent="589XAvg-LLkNVb0MRYLu-1" source="589XAvg-LLkNVb0MRYLu-5" target="589XAvg-LLkNVb0MRYLu-107">
          <mxGeometry relative="1" as="geometry" />
        </mxCell>
        <mxCell id="589XAvg-LLkNVb0MRYLu-121" value="" style="group;fillColor=#99CCFF;" vertex="1" connectable="0" parent="589XAvg-LLkNVb0MRYLu-1">
          <mxGeometry x="530" y="27" width="100" height="67" as="geometry" />
        </mxCell>
        <mxCell id="589XAvg-LLkNVb0MRYLu-122" value="&lt;b&gt;&lt;br&gt;Confirm receive goods&lt;br&gt;&lt;/b&gt;" style="rounded=0;whiteSpace=wrap;html=1;shadow=1;glass=0;sketch=1;fillColor=#99CCFF;" vertex="1" parent="589XAvg-LLkNVb0MRYLu-121">
          <mxGeometry width="100" height="67" as="geometry" />
        </mxCell>
        <mxCell id="589XAvg-LLkNVb0MRYLu-123" value="" style="shape=mxgraph.bpmn.manual_task;html=1;outlineConnect=0;rounded=0;shadow=1;glass=0;sketch=1;" vertex="1" parent="589XAvg-LLkNVb0MRYLu-121">
          <mxGeometry x="7" y="8" width="14" height="14" as="geometry" />
        </mxCell>
        <mxCell id="589XAvg-LLkNVb0MRYLu-125" style="edgeStyle=orthogonalEdgeStyle;orthogonalLoop=1;jettySize=auto;html=1;entryX=0;entryY=0.5;entryDx=0;entryDy=0;strokeWidth=3;rounded=0;" edge="1" parent="589XAvg-LLkNVb0MRYLu-1" source="589XAvg-LLkNVb0MRYLu-107" target="589XAvg-LLkNVb0MRYLu-122">
          <mxGeometry relative="1" as="geometry" />
        </mxCell>
        <mxCell id="e2wK-yW2sYxYP3PSsNnn-108" value="" style="ellipse;html=1;shape=endState;fillColor=#000000;strokeColor=#ff0000;rounded=0;shadow=1;glass=0;sketch=1;" parent="589XAvg-LLkNVb0MRYLu-1" vertex="1">
          <mxGeometry x="556" y="148" width="49" height="50" as="geometry" />
        </mxCell>
        <mxCell id="589XAvg-LLkNVb0MRYLu-126" style="edgeStyle=orthogonalEdgeStyle;rounded=0;orthogonalLoop=1;jettySize=auto;html=1;entryX=0.5;entryY=0;entryDx=0;entryDy=0;strokeWidth=3;" edge="1" parent="589XAvg-LLkNVb0MRYLu-1" source="589XAvg-LLkNVb0MRYLu-122" target="e2wK-yW2sYxYP3PSsNnn-108">
          <mxGeometry relative="1" as="geometry" />
        </mxCell>
        <mxCell id="589XAvg-LLkNVb0MRYLu-130" style="edgeStyle=orthogonalEdgeStyle;curved=1;orthogonalLoop=1;jettySize=auto;html=1;entryX=0.75;entryY=1;entryDx=0;entryDy=0;dashed=1;strokeWidth=3;" edge="1" parent="589XAvg-LLkNVb0MRYLu-1" source="589XAvg-LLkNVb0MRYLu-128" target="589XAvg-LLkNVb0MRYLu-5">
          <mxGeometry relative="1" as="geometry" />
        </mxCell>
        <mxCell id="589XAvg-LLkNVb0MRYLu-128" value="&lt;b&gt;Customer Preferences&lt;/b&gt;" style="shape=datastore;whiteSpace=wrap;html=1;rounded=0;shadow=1;glass=0;sketch=1;" vertex="1" parent="589XAvg-LLkNVb0MRYLu-1">
          <mxGeometry x="400" y="128" width="90" height="60" as="geometry" />
        </mxCell>
        <mxCell id="589XAvg-LLkNVb0MRYLu-129" style="edgeStyle=orthogonalEdgeStyle;orthogonalLoop=1;jettySize=auto;html=1;exitX=0;exitY=0.75;exitDx=0;exitDy=0;entryX=0.742;entryY=0.017;entryDx=0;entryDy=0;entryPerimeter=0;dashed=1;strokeWidth=3;curved=1;" edge="1" parent="589XAvg-LLkNVb0MRYLu-1" source="589XAvg-LLkNVb0MRYLu-122" target="589XAvg-LLkNVb0MRYLu-128">
          <mxGeometry relative="1" as="geometry" />
        </mxCell>
        <mxCell id="dNxyNK7c78bLwvsdeMH5-20" value="Distribution &amp;amp; Inventory" style="swimlane;html=1;startSize=20;horizontal=0;shadow=1;sketch=1;" parent="dNxyNK7c78bLwvsdeMH5-19" vertex="1">
          <mxGeometry x="20" y="210" width="680" height="210" as="geometry">
            <mxRectangle x="20" width="670" height="20" as="alternateBounds" />
          </mxGeometry>
        </mxCell>
        <mxCell id="e2wK-yW2sYxYP3PSsNnn-73" value="&lt;b&gt;Point-of-sale Data&lt;/b&gt;" style="shape=datastore;whiteSpace=wrap;html=1;rounded=0;shadow=1;glass=0;sketch=1;" parent="dNxyNK7c78bLwvsdeMH5-20" vertex="1">
          <mxGeometry x="550" y="61" width="90" height="60" as="geometry" />
        </mxCell>
        <mxCell id="589XAvg-LLkNVb0MRYLu-91" style="edgeStyle=orthogonalEdgeStyle;rounded=0;orthogonalLoop=1;jettySize=auto;html=1;entryX=0.5;entryY=0;entryDx=0;entryDy=0;strokeWidth=3;" edge="1" parent="dNxyNK7c78bLwvsdeMH5-20" source="589XAvg-LLkNVb0MRYLu-3" target="589XAvg-LLkNVb0MRYLu-87">
          <mxGeometry relative="1" as="geometry" />
        </mxCell>
        <mxCell id="589XAvg-LLkNVb0MRYLu-3" value="&lt;b&gt;Order &amp;amp; Process Information&lt;/b&gt;" style="shape=datastore;whiteSpace=wrap;html=1;rounded=0;shadow=1;glass=0;sketch=1;" vertex="1" parent="dNxyNK7c78bLwvsdeMH5-20">
          <mxGeometry x="41" y="28" width="129" height="60" as="geometry" />
        </mxCell>
        <mxCell id="589XAvg-LLkNVb0MRYLu-86" value="" style="group;fillColor=#99CCFF;" vertex="1" connectable="0" parent="dNxyNK7c78bLwvsdeMH5-20">
          <mxGeometry x="59" y="121" width="100" height="70" as="geometry" />
        </mxCell>
        <mxCell id="589XAvg-LLkNVb0MRYLu-90" value="" style="group" vertex="1" connectable="0" parent="589XAvg-LLkNVb0MRYLu-86">
          <mxGeometry width="100" height="70" as="geometry" />
        </mxCell>
        <mxCell id="589XAvg-LLkNVb0MRYLu-92" value="" style="group" vertex="1" connectable="0" parent="589XAvg-LLkNVb0MRYLu-90">
          <mxGeometry x="-4" y="1" width="100" height="69" as="geometry" />
        </mxCell>
        <mxCell id="589XAvg-LLkNVb0MRYLu-87" value="&lt;b&gt;&lt;br&gt;Distribute &lt;br&gt;orders&lt;/b&gt;" style="rounded=0;whiteSpace=wrap;html=1;shadow=1;glass=0;sketch=1;fillColor=#99CCFF;" vertex="1" parent="589XAvg-LLkNVb0MRYLu-92">
          <mxGeometry width="100" height="69" as="geometry" />
        </mxCell>
        <mxCell id="589XAvg-LLkNVb0MRYLu-89" value="" style="shape=mxgraph.bpmn.service_task;html=1;outlineConnect=0;rounded=0;shadow=1;glass=0;sketch=1;" vertex="1" parent="589XAvg-LLkNVb0MRYLu-92">
          <mxGeometry x="11" y="7.208955223880597" width="14" height="14.417910447761194" as="geometry" />
        </mxCell>
        <mxCell id="dNxyNK7c78bLwvsdeMH5-22" value="Retail Store" style="swimlane;html=1;startSize=20;horizontal=0;shadow=1;sketch=1;" parent="dNxyNK7c78bLwvsdeMH5-19" vertex="1">
          <mxGeometry x="20" y="420" width="680" height="180" as="geometry" />
        </mxCell>
        <mxCell id="e2wK-yW2sYxYP3PSsNnn-81" value="" style="group;fillColor=#99CCFF;" parent="dNxyNK7c78bLwvsdeMH5-22" vertex="1" connectable="0">
          <mxGeometry x="31" y="26" width="110" height="62" as="geometry" />
        </mxCell>
        <mxCell id="e2wK-yW2sYxYP3PSsNnn-78" value="&lt;b&gt;&lt;br&gt;Get order information&lt;/b&gt;" style="rounded=0;whiteSpace=wrap;html=1;shadow=1;glass=0;sketch=1;fillColor=#99CCFF;" parent="e2wK-yW2sYxYP3PSsNnn-81" vertex="1">
          <mxGeometry width="110" height="62" as="geometry" />
        </mxCell>
        <mxCell id="589XAvg-LLkNVb0MRYLu-94" value="" style="shape=mxgraph.bpmn.service_task;html=1;outlineConnect=0;rounded=0;shadow=1;glass=0;sketch=1;" vertex="1" parent="e2wK-yW2sYxYP3PSsNnn-81">
          <mxGeometry x="9" y="11" width="14" height="14" as="geometry" />
        </mxCell>
        <mxCell id="e2wK-yW2sYxYP3PSsNnn-86" style="edgeStyle=orthogonalEdgeStyle;curved=1;sketch=1;orthogonalLoop=1;jettySize=auto;html=1;entryX=0;entryY=0.5;entryDx=0;entryDy=0;shadow=1;dashed=1;strokeWidth=3;exitX=0.25;exitY=1;exitDx=0;exitDy=0;" parent="dNxyNK7c78bLwvsdeMH5-22" source="e2wK-yW2sYxYP3PSsNnn-78" target="589XAvg-LLkNVb0MRYLu-95" edge="1">
          <mxGeometry relative="1" as="geometry">
            <mxPoint x="197.42000000000007" y="120.84999999999991" as="targetPoint" />
          </mxGeometry>
        </mxCell>
        <mxCell id="e2wK-yW2sYxYP3PSsNnn-89" style="edgeStyle=orthogonalEdgeStyle;curved=1;sketch=1;orthogonalLoop=1;jettySize=auto;html=1;entryX=0.5;entryY=1;entryDx=0;entryDy=0;shadow=1;dashed=1;strokeWidth=3;exitX=1;exitY=0.5;exitDx=0;exitDy=0;" parent="dNxyNK7c78bLwvsdeMH5-22" source="589XAvg-LLkNVb0MRYLu-95" target="e2wK-yW2sYxYP3PSsNnn-87" edge="1">
          <mxGeometry relative="1" as="geometry">
            <mxPoint x="237.5" y="113" as="sourcePoint" />
          </mxGeometry>
        </mxCell>
        <mxCell id="e2wK-yW2sYxYP3PSsNnn-96" value="" style="group;fillColor=#99CCFF;" parent="dNxyNK7c78bLwvsdeMH5-22" vertex="1" connectable="0">
          <mxGeometry x="280" y="31.5" width="90" height="53" as="geometry" />
        </mxCell>
        <mxCell id="589XAvg-LLkNVb0MRYLu-99" value="" style="group" vertex="1" connectable="0" parent="e2wK-yW2sYxYP3PSsNnn-96">
          <mxGeometry width="90" height="53" as="geometry" />
        </mxCell>
        <mxCell id="e2wK-yW2sYxYP3PSsNnn-87" value="&lt;b&gt;&lt;br&gt;Prepare order goods&lt;br&gt;&lt;/b&gt;" style="rounded=0;whiteSpace=wrap;html=1;shadow=1;glass=0;sketch=1;fillColor=#99CCFF;" parent="589XAvg-LLkNVb0MRYLu-99" vertex="1">
          <mxGeometry x="4" y="-2" width="80" height="53" as="geometry" />
        </mxCell>
        <mxCell id="589XAvg-LLkNVb0MRYLu-96" value="" style="shape=mxgraph.bpmn.user_task;html=1;outlineConnect=0;" vertex="1" parent="589XAvg-LLkNVb0MRYLu-99">
          <mxGeometry x="5" y="5.890000000000001" width="14" height="14" as="geometry" />
        </mxCell>
        <mxCell id="e2wK-yW2sYxYP3PSsNnn-97" value="" style="group;" parent="dNxyNK7c78bLwvsdeMH5-22" vertex="1" connectable="0">
          <mxGeometry x="559" y="33" width="100" height="65" as="geometry" />
        </mxCell>
        <mxCell id="e2wK-yW2sYxYP3PSsNnn-100" value="" style="group;fillColor=#99CCFF;" parent="e2wK-yW2sYxYP3PSsNnn-97" vertex="1" connectable="0">
          <mxGeometry y="-7" width="100" height="65" as="geometry" />
        </mxCell>
        <mxCell id="589XAvg-LLkNVb0MRYLu-98" value="" style="group" vertex="1" connectable="0" parent="e2wK-yW2sYxYP3PSsNnn-100">
          <mxGeometry width="100" height="65" as="geometry" />
        </mxCell>
        <mxCell id="e2wK-yW2sYxYP3PSsNnn-98" value="&lt;b&gt;&lt;br&gt;Upload point-of-sale data&lt;/b&gt;" style="rounded=0;whiteSpace=wrap;html=1;shadow=1;glass=0;sketch=1;fillColor=#99CCFF;" parent="589XAvg-LLkNVb0MRYLu-98" vertex="1">
          <mxGeometry width="100" height="65" as="geometry" />
        </mxCell>
        <mxCell id="589XAvg-LLkNVb0MRYLu-97" value="" style="shape=mxgraph.bpmn.service_task;html=1;outlineConnect=0;rounded=0;shadow=1;glass=0;sketch=1;" vertex="1" parent="589XAvg-LLkNVb0MRYLu-98">
          <mxGeometry x="10" y="9.999999999999986" width="14" height="14" as="geometry" />
        </mxCell>
        <mxCell id="589XAvg-LLkNVb0MRYLu-95" value="&lt;b&gt;Retail order Information&lt;/b&gt;" style="shape=datastore;whiteSpace=wrap;html=1;rounded=0;shadow=1;glass=0;sketch=1;" vertex="1" parent="dNxyNK7c78bLwvsdeMH5-22">
          <mxGeometry x="141" y="106" width="90" height="60" as="geometry" />
        </mxCell>
        <mxCell id="589XAvg-LLkNVb0MRYLu-101" style="edgeStyle=orthogonalEdgeStyle;rounded=0;orthogonalLoop=1;jettySize=auto;html=1;entryX=0;entryY=0.5;entryDx=0;entryDy=0;strokeWidth=3;" edge="1" parent="dNxyNK7c78bLwvsdeMH5-22" source="e2wK-yW2sYxYP3PSsNnn-78" target="e2wK-yW2sYxYP3PSsNnn-87">
          <mxGeometry relative="1" as="geometry">
            <mxPoint x="180" y="55.5" as="targetPoint" />
          </mxGeometry>
        </mxCell>
        <mxCell id="589XAvg-LLkNVb0MRYLu-111" value="" style="group;fillColor=#99CCFF;" vertex="1" connectable="0" parent="dNxyNK7c78bLwvsdeMH5-22">
          <mxGeometry x="427" y="109.5" width="90" height="53" as="geometry" />
        </mxCell>
        <mxCell id="589XAvg-LLkNVb0MRYLu-112" value="" style="group" vertex="1" connectable="0" parent="589XAvg-LLkNVb0MRYLu-111">
          <mxGeometry x="-5" width="90" height="53" as="geometry" />
        </mxCell>
        <mxCell id="589XAvg-LLkNVb0MRYLu-113" value="&lt;b&gt;&lt;br&gt;Deliver goods&lt;br&gt;&lt;/b&gt;" style="rounded=0;whiteSpace=wrap;html=1;shadow=1;glass=0;sketch=1;fillColor=#99CCFF;" vertex="1" parent="589XAvg-LLkNVb0MRYLu-112">
          <mxGeometry x="4" y="-2" width="80" height="53" as="geometry" />
        </mxCell>
        <mxCell id="589XAvg-LLkNVb0MRYLu-114" value="" style="shape=mxgraph.bpmn.user_task;html=1;outlineConnect=0;" vertex="1" parent="589XAvg-LLkNVb0MRYLu-112">
          <mxGeometry x="5" y="5.890000000000001" width="14" height="14" as="geometry" />
        </mxCell>
        <mxCell id="589XAvg-LLkNVb0MRYLu-115" style="edgeStyle=orthogonalEdgeStyle;rounded=0;orthogonalLoop=1;jettySize=auto;html=1;entryX=0;entryY=0.5;entryDx=0;entryDy=0;strokeWidth=3;" edge="1" parent="dNxyNK7c78bLwvsdeMH5-22" source="e2wK-yW2sYxYP3PSsNnn-87" target="589XAvg-LLkNVb0MRYLu-113">
          <mxGeometry relative="1" as="geometry" />
        </mxCell>
        <mxCell id="589XAvg-LLkNVb0MRYLu-116" style="edgeStyle=orthogonalEdgeStyle;rounded=0;orthogonalLoop=1;jettySize=auto;html=1;entryX=0;entryY=0.5;entryDx=0;entryDy=0;strokeWidth=3;" edge="1" parent="dNxyNK7c78bLwvsdeMH5-22" source="589XAvg-LLkNVb0MRYLu-113" target="e2wK-yW2sYxYP3PSsNnn-98">
          <mxGeometry relative="1" as="geometry">
            <Array as="points">
              <mxPoint x="539" y="134" />
              <mxPoint x="539" y="59" />
            </Array>
          </mxGeometry>
        </mxCell>
        <mxCell id="e2wK-yW2sYxYP3PSsNnn-103" style="edgeStyle=orthogonalEdgeStyle;curved=1;sketch=1;orthogonalLoop=1;jettySize=auto;html=1;entryX=0.5;entryY=1;entryDx=0;entryDy=0;shadow=1;dashed=1;strokeWidth=3;" parent="dNxyNK7c78bLwvsdeMH5-19" source="e2wK-yW2sYxYP3PSsNnn-98" target="e2wK-yW2sYxYP3PSsNnn-73" edge="1">
          <mxGeometry relative="1" as="geometry" />
        </mxCell>
        <mxCell id="589XAvg-LLkNVb0MRYLu-7" style="edgeStyle=orthogonalEdgeStyle;sketch=1;orthogonalLoop=1;jettySize=auto;html=1;shadow=1;strokeWidth=3;curved=1;dashed=1;exitX=0.5;exitY=1;exitDx=0;exitDy=0;" edge="1" parent="dNxyNK7c78bLwvsdeMH5-19" source="589XAvg-LLkNVb0MRYLu-5" target="589XAvg-LLkNVb0MRYLu-3">
          <mxGeometry relative="1" as="geometry" />
        </mxCell>
        <mxCell id="589XAvg-LLkNVb0MRYLu-93" style="edgeStyle=orthogonalEdgeStyle;rounded=0;orthogonalLoop=1;jettySize=auto;html=1;entryX=0.5;entryY=0;entryDx=0;entryDy=0;strokeWidth=3;" edge="1" parent="dNxyNK7c78bLwvsdeMH5-19" source="589XAvg-LLkNVb0MRYLu-87" target="e2wK-yW2sYxYP3PSsNnn-78">
          <mxGeometry relative="1" as="geometry" />
        </mxCell>
        <mxCell id="589XAvg-LLkNVb0MRYLu-118" style="edgeStyle=orthogonalEdgeStyle;orthogonalLoop=1;jettySize=auto;html=1;entryX=0.25;entryY=1;entryDx=0;entryDy=0;dashed=1;strokeWidth=3;curved=1;" edge="1" parent="dNxyNK7c78bLwvsdeMH5-19" source="589XAvg-LLkNVb0MRYLu-3" target="589XAvg-LLkNVb0MRYLu-107">
          <mxGeometry relative="1" as="geometry" />
        </mxCell>
        <mxCell id="589XAvg-LLkNVb0MRYLu-119" style="edgeStyle=orthogonalEdgeStyle;curved=1;orthogonalLoop=1;jettySize=auto;html=1;entryX=1;entryY=0.7;entryDx=0;entryDy=0;dashed=1;strokeWidth=3;exitX=0.5;exitY=0;exitDx=0;exitDy=0;" edge="1" parent="dNxyNK7c78bLwvsdeMH5-19" source="e2wK-yW2sYxYP3PSsNnn-87" target="589XAvg-LLkNVb0MRYLu-3">
          <mxGeometry relative="1" as="geometry" />
        </mxCell>
        <mxCell id="589XAvg-LLkNVb0MRYLu-120" style="edgeStyle=orthogonalEdgeStyle;curved=1;orthogonalLoop=1;jettySize=auto;html=1;entryX=1;entryY=0.7;entryDx=0;entryDy=0;dashed=1;strokeWidth=3;exitX=0.5;exitY=0;exitDx=0;exitDy=0;" edge="1" parent="dNxyNK7c78bLwvsdeMH5-19" source="589XAvg-LLkNVb0MRYLu-113" target="589XAvg-LLkNVb0MRYLu-3">
          <mxGeometry relative="1" as="geometry" />
        </mxCell>
        <mxCell id="589XAvg-LLkNVb0MRYLu-14" style="edgeStyle=orthogonalEdgeStyle;rounded=0;orthogonalLoop=1;jettySize=auto;html=1;entryX=0.5;entryY=0;entryDx=0;entryDy=0;strokeWidth=3;dashed=1;" edge="1" parent="1" source="e2wK-yW2sYxYP3PSsNnn-27" target="589XAvg-LLkNVb0MRYLu-11">
          <mxGeometry relative="1" as="geometry">
            <Array as="points">
              <mxPoint x="160" y="110" />
              <mxPoint x="160" y="110" />
            </Array>
          </mxGeometry>
        </mxCell>
        <mxCell id="589XAvg-LLkNVb0MRYLu-127" style="edgeStyle=orthogonalEdgeStyle;rounded=0;orthogonalLoop=1;jettySize=auto;html=1;entryX=0.5;entryY=0;entryDx=0;entryDy=0;strokeWidth=3;dashed=1;" edge="1" parent="1" source="e2wK-yW2sYxYP3PSsNnn-27" target="589XAvg-LLkNVb0MRYLu-122">
          <mxGeometry relative="1" as="geometry">
            <Array as="points">
              <mxPoint x="680" y="110" />
              <mxPoint x="680" y="110" />
            </Array>
          </mxGeometry>
        </mxCell>
        <mxCell id="e2wK-yW2sYxYP3PSsNnn-27" value="Customer" style="swimlane;html=1;startSize=20;horizontal=0;shadow=1;sketch=1;" parent="1" vertex="1">
          <mxGeometry x="100" y="10" width="680" height="90" as="geometry" />
        </mxCell>
        <mxCell id="589XAvg-LLkNVb0MRYLu-117" style="edgeStyle=orthogonalEdgeStyle;rounded=0;orthogonalLoop=1;jettySize=auto;html=1;strokeWidth=3;dashed=1;" edge="1" parent="1" source="589XAvg-LLkNVb0MRYLu-107">
          <mxGeometry relative="1" as="geometry">
            <mxPoint x="490" y="100" as="targetPoint" />
          </mxGeometry>
        </mxCell>
      </root>
    </mxGraphModel>
  </diagram>
</mxfile>
